<svg xmlns="http://www.w3.org/2000/svg" version="1.1" xmlns:xlink="http://www.w3.org/1999/xlink" width="200" height="200"><svg xmlns="http://www.w3.org/2000/svg" version="1.1" xmlns:xlink="http://www.w3.org/1999/xlink" viewBox="0 0 200 200"><rect width="200" height="200" fill="url('#gradient')"></rect><defs><linearGradient id="SvgjsLinearGradient1001" gradientTransform="rotate(68 0.5 0.5)"><stop offset="0%" stop-color="#634035"></stop><stop offset="100%" stop-color="#ff3b3b"></stop></linearGradient></defs><g><g fill="#fcfb9b" transform="matrix(2.639524124256444,0,0,2.639524124256444,20.220773441643416,113.398708054315)" stroke="#a8dc9f" stroke-width="0"><path d="M9.17-4.81L12.58-4.81Q12.51-3.33 11.78-2.19Q11.04-1.05 9.72-0.43Q8.40 0.20 6.70 0.20L6.70 0.20Q3.90 0.20 2.29-1.63Q0.67-3.46 0.67-6.79L0.67-6.79L0.67-7.49Q0.67-9.58 1.40-11.15Q2.13-12.71 3.50-13.57Q4.86-14.42 6.66-14.42L6.66-14.42Q9.25-14.42 10.82-13.06Q12.39-11.70 12.61-9.31L12.61-9.31L9.19-9.31Q9.15-10.61 8.54-11.17Q7.92-11.74 6.66-11.74L6.66-11.74Q5.38-11.74 4.79-10.78Q4.19-9.82 4.16-7.72L4.16-7.72L4.16-6.72Q4.16-4.44 4.73-3.47Q5.30-2.49 6.70-2.49L6.70-2.49Q7.88-2.49 8.51-3.05Q9.13-3.60 9.17-4.81L9.17-4.81ZM20.50-10.64L20.44-7.59L19.36-7.67Q17.80-7.67 17.36-6.69L17.36-6.69L17.36 0L14.07 0L14.07-10.57L17.16-10.57L17.27-9.21Q18.10-10.76 19.58-10.76L19.58-10.76Q20.11-10.76 20.50-10.64L20.50-10.64ZM24.36-10.57L26.03-4.61L27.78-10.57L31.31-10.57L27.00 1.77L26.82 2.22Q25.90 4.27 23.57 4.27L23.57 4.27Q22.93 4.27 22.22 4.07L22.22 4.07L22.22 1.72L22.65 1.72Q23.34 1.72 23.71 1.52Q24.07 1.32 24.25 0.80L24.25 0.80L24.51 0.10L20.84-10.57L24.36-10.57ZM41.97-5.36L41.97-5.21Q41.97-2.74 40.86-1.27Q39.76 0.20 37.87 0.20L37.87 0.20Q36.42 0.20 35.48-0.87L35.48-0.87L35.48 4.06L32.19 4.06L32.19-10.57L35.26-10.57L35.36-9.59Q36.31-10.76 37.85-10.76L37.85-10.76Q39.80-10.76 40.89-9.32Q41.97-7.88 41.97-5.36L41.97-5.36ZM38.68-5.06L38.68-5.41Q38.68-8.22 37.04-8.22L37.04-8.22Q35.87-8.22 35.48-7.38L35.48-7.38L35.48-3.22Q35.91-2.34 37.06-2.34L37.06-2.34Q38.63-2.34 38.68-5.06L38.68-5.06ZM43.96-13.19L47.26-13.19L47.26-10.57L48.99-10.57L48.99-8.28L47.26-8.28L47.26-3.45Q47.26-2.85 47.47-2.62Q47.69-2.38 48.32-2.38L48.32-2.38Q48.81-2.38 49.14-2.44L49.14-2.44L49.14-0.09Q48.25 0.20 47.29 0.20L47.29 0.20Q45.59 0.20 44.78-0.61Q43.96-1.41 43.96-3.04L43.96-3.04L43.96-8.28L42.62-8.28L42.62-10.57L43.96-10.57L43.96-13.19ZM49.59-4.82L49.58-5.38Q49.58-6.96 50.20-8.20Q50.81-9.43 51.96-10.10Q53.12-10.76 54.67-10.76L54.67-10.76Q57.04-10.76 58.41-9.29Q59.78-7.82 59.78-5.29L59.78-5.29L59.78-5.18Q59.78-2.71 58.40-1.25Q57.03 0.20 54.69 0.20L54.69 0.20Q52.43 0.20 51.06-1.16Q49.70-2.51 49.59-4.82L49.59-4.82ZM52.88-5.77L52.87-5.18Q52.87-3.71 53.33-3.03Q53.79-2.34 54.69-2.34L54.69-2.34Q56.45-2.34 56.48-5.05L56.48-5.05L56.48-5.38Q56.48-8.22 54.67-8.22L54.67-8.22Q53.02-8.22 52.88-5.77L52.88-5.77Z"></path></g></g></svg><style>@media (prefers-color-scheme: light) { :root { filter: none; } }
@media (prefers-color-scheme: dark) { :root { filter: none; } }
</style></svg>